<svg xmlns="http://www.w3.org/2000/svg" xmlns:xlink="http://www.w3.org/1999/xlink" width="500" zoomAndPan="magnify" viewBox="0 0 375 374.999991" height="500" preserveAspectRatio="xMidYMid meet" version="1.0"><defs><g/><clipPath id="ae49d86649"><path d="M 144.460938 0 L 230.539062 0 L 230.539062 86.074219 L 144.460938 86.074219 Z M 144.460938 0 " clip-rule="nonzero"/></clipPath><clipPath id="97dc8ca95c"><path d="M 187.5 0 C 163.730469 0 144.460938 19.269531 144.460938 43.039062 C 144.460938 66.804688 163.730469 86.074219 187.5 86.074219 C 211.269531 86.074219 230.539062 66.804688 230.539062 43.039062 C 230.539062 19.269531 211.269531 0 187.5 0 Z M 187.5 0 " clip-rule="nonzero"/></clipPath><clipPath id="34c6a2b34f"><path d="M 197.953125 95.050781 L 284.027344 95.050781 L 284.027344 181.125 L 197.953125 181.125 Z M 197.953125 95.050781 " clip-rule="nonzero"/></clipPath><clipPath id="a09c5173a5"><path d="M 240.988281 95.050781 C 217.222656 95.050781 197.953125 114.320312 197.953125 138.089844 C 197.953125 161.855469 217.222656 181.125 240.988281 181.125 C 264.757812 181.125 284.027344 161.855469 284.027344 138.089844 C 284.027344 114.320312 264.757812 95.050781 240.988281 95.050781 Z M 240.988281 95.050781 " clip-rule="nonzero"/></clipPath><clipPath id="ac6de4747e"><path d="M 90.972656 95.050781 L 177.046875 95.050781 L 177.046875 181.125 L 90.972656 181.125 Z M 90.972656 95.050781 " clip-rule="nonzero"/></clipPath><clipPath id="52aa507024"><path d="M 134.011719 95.050781 C 110.242188 95.050781 90.972656 114.320312 90.972656 138.089844 C 90.972656 161.855469 110.242188 181.125 134.011719 181.125 C 157.777344 181.125 177.046875 161.855469 177.046875 138.089844 C 177.046875 114.320312 157.777344 95.050781 134.011719 95.050781 Z M 134.011719 95.050781 " clip-rule="nonzero"/></clipPath></defs><g clip-path="url(#ae49d86649)"><g clip-path="url(#97dc8ca95c)"><path fill="#ffffff" d="M 144.460938 0 L 230.539062 0 L 230.539062 86.074219 L 144.460938 86.074219 Z M 144.460938 0 " fill-opacity="1" fill-rule="nonzero"/><path stroke-linecap="butt" transform="matrix(0.573834, 0, 0, 0.573834, 144.462489, 0)" fill="none" stroke-linejoin="miter" d="M 74.999958 0 C 33.577631 0 -0.00270447 33.580335 -0.00270447 75.002663 C -0.00270447 116.418183 33.577631 149.998518 74.999958 149.998518 C 116.422286 149.998518 150.002621 116.418183 150.002621 75.002663 C 150.002621 33.580335 116.422286 0 74.999958 0 Z M 74.999958 0 " stroke="#ff914d" stroke-width="81.03392" stroke-opacity="1" stroke-miterlimit="4"/></g></g><g clip-path="url(#34c6a2b34f)"><g clip-path="url(#a09c5173a5)"><path fill="#ff914d" d="M 197.953125 95.050781 L 284.027344 95.050781 L 284.027344 181.125 L 197.953125 181.125 Z M 197.953125 95.050781 " fill-opacity="1" fill-rule="nonzero"/></g></g><g clip-path="url(#ac6de4747e)"><g clip-path="url(#52aa507024)"><path fill="#ffffff" d="M 90.972656 95.050781 L 177.046875 95.050781 L 177.046875 181.125 L 90.972656 181.125 Z M 90.972656 95.050781 " fill-opacity="1" fill-rule="nonzero"/><path stroke-linecap="butt" transform="matrix(0.573834, 0, 0, 0.573834, 90.972515, 95.050717)" fill="none" stroke-linejoin="miter" d="M 75.00291 0.000112039 C 33.580582 0.000112039 0.000246977 33.580447 0.000246977 75.002775 C 0.000246977 116.418295 33.580582 149.99863 75.00291 149.99863 C 116.41843 149.99863 149.998765 116.418295 149.998765 75.002775 C 149.998765 33.580447 116.41843 0.000112039 75.00291 0.000112039 Z M 75.00291 0.000112039 " stroke="#ff914d" stroke-width="81.03392" stroke-opacity="1" stroke-miterlimit="4"/></g></g><g fill="#ff914d" fill-opacity="1"><g transform="translate(90.295102, 277.442766)"><g><path d="M 0.609375 -50.515625 L 0.609375 -63.15625 L 45.015625 -63.15625 L 45.015625 -50.515625 L 30 -50.515625 L 30 0 L 15.609375 0 L 15.609375 -50.515625 Z M 0.609375 -50.515625 "/></g></g></g><g fill="#ff914d" fill-opacity="1"><g transform="translate(132.08364, 277.442766)"><g><path d="M 4.59375 0 L 4.59375 -65.828125 L 18.140625 -65.828125 L 18.140625 -35.140625 L 18.296875 -35.140625 C 21.816406 -38.660156 25.566406 -40.421875 29.546875 -40.421875 C 31.484375 -40.421875 33.410156 -40.164062 35.328125 -39.65625 C 37.242188 -39.144531 39.082031 -38.351562 40.84375 -37.28125 C 42.601562 -36.207031 44.03125 -34.6875 45.125 -32.71875 C 46.21875 -30.757812 46.765625 -28.476562 46.765625 -25.875 L 46.765625 0 L 33.21875 0 L 33.21875 -22.203125 C 33.21875 -24.242188 32.566406 -26.03125 31.265625 -27.5625 C 29.960938 -29.09375 28.265625 -29.859375 26.171875 -29.859375 C 24.128906 -29.859375 22.28125 -29.066406 20.625 -27.484375 C 18.96875 -25.898438 18.140625 -24.140625 18.140625 -22.203125 L 18.140625 0 Z M 4.59375 0 "/></g></g></g><g fill="#ff914d" fill-opacity="1"><g transform="translate(178.847046, 277.442766)"><g><path d="M 5.890625 -61.15625 C 7.472656 -62.738281 9.359375 -63.53125 11.546875 -63.53125 C 13.742188 -63.53125 15.632812 -62.738281 17.21875 -61.15625 C 18.800781 -59.570312 19.59375 -57.679688 19.59375 -55.484375 C 19.59375 -53.296875 18.800781 -51.410156 17.21875 -49.828125 C 15.632812 -48.242188 13.742188 -47.453125 11.546875 -47.453125 C 9.359375 -47.453125 7.472656 -48.242188 5.890625 -49.828125 C 4.304688 -51.410156 3.515625 -53.296875 3.515625 -55.484375 C 3.515625 -57.679688 4.304688 -59.570312 5.890625 -61.15625 Z M 4.59375 -39.265625 L 4.59375 0 L 18.140625 0 L 18.140625 -39.265625 Z M 4.59375 -39.265625 "/></g></g></g><g fill="#ff914d" fill-opacity="1"><g transform="translate(198.13384, 277.442766)"><g><path d="M 4.59375 0 L 4.59375 -39.265625 L 18.140625 -39.265625 L 18.140625 -33.609375 L 18.296875 -33.609375 C 18.398438 -33.804688 18.566406 -34.054688 18.796875 -34.359375 C 19.023438 -34.671875 19.519531 -35.207031 20.28125 -35.96875 C 21.050781 -36.738281 21.867188 -37.429688 22.734375 -38.046875 C 23.597656 -38.660156 24.71875 -39.207031 26.09375 -39.6875 C 27.476562 -40.175781 28.882812 -40.421875 30.3125 -40.421875 C 31.789062 -40.421875 33.242188 -40.210938 34.671875 -39.796875 C 36.097656 -39.390625 37.144531 -38.984375 37.8125 -38.578125 L 38.890625 -37.96875 L 33.21875 -26.484375 C 31.53125 -27.910156 29.179688 -28.625 26.171875 -28.625 C 24.546875 -28.625 23.144531 -28.265625 21.96875 -27.546875 C 20.789062 -26.835938 19.957031 -25.972656 19.46875 -24.953125 C 18.988281 -23.929688 18.644531 -23.0625 18.4375 -22.34375 C 18.238281 -21.632812 18.140625 -21.078125 18.140625 -20.671875 L 18.140625 0 Z M 4.59375 0 "/></g></g></g><g fill="#ff914d" fill-opacity="1"><g transform="translate(232.421789, 277.442766)"><g><path d="M 7.265625 -4.859375 C 3.597656 -8.867188 1.765625 -13.78125 1.765625 -19.59375 C 1.765625 -25.414062 3.597656 -30.34375 7.265625 -34.375 C 10.941406 -38.40625 15.613281 -40.421875 21.28125 -40.421875 C 26.488281 -40.421875 30.773438 -38.785156 34.140625 -35.515625 L 34.140625 -65.828125 L 47.6875 -65.828125 L 47.6875 0 L 34.296875 0 L 34.296875 -4.4375 L 34.140625 -4.4375 C 30.773438 -0.71875 26.488281 1.140625 21.28125 1.140625 C 15.613281 1.140625 10.941406 -0.859375 7.265625 -4.859375 Z M 18.796875 -26.25 C 17.035156 -24.519531 16.15625 -22.300781 16.15625 -19.59375 C 16.15625 -16.882812 16.992188 -14.675781 18.671875 -12.96875 C 20.359375 -11.257812 22.582031 -10.40625 25.34375 -10.40625 C 27.988281 -10.40625 30.164062 -11.269531 31.875 -13 C 33.59375 -14.738281 34.453125 -16.9375 34.453125 -19.59375 C 34.453125 -22.300781 33.570312 -24.519531 31.8125 -26.25 C 30.050781 -27.988281 27.894531 -28.859375 25.34375 -28.859375 C 22.738281 -28.859375 20.554688 -27.988281 18.796875 -26.25 Z M 18.796875 -26.25 "/></g></g></g><g fill="#ff914d" fill-opacity="1"><g transform="translate(89.646597, 349.660246)"><g><path d="M 45 -34.40625 C 48.675781 -30.40625 50.515625 -25.492188 50.515625 -19.671875 C 50.515625 -13.859375 48.675781 -8.9375 45 -4.90625 C 41.332031 -0.875 36.664062 1.140625 31 1.140625 C 25.789062 1.140625 21.503906 -0.488281 18.140625 -3.75 L 18.140625 19.90625 L 4.59375 19.90625 L 4.59375 -39.265625 L 17.984375 -39.265625 L 17.984375 -34.828125 L 18.140625 -34.828125 C 21.503906 -38.554688 25.789062 -40.421875 31 -40.421875 C 36.664062 -40.421875 41.332031 -38.414062 45 -34.40625 Z M 33.484375 -13 C 35.242188 -14.738281 36.125 -16.960938 36.125 -19.671875 C 36.125 -22.378906 35.28125 -24.585938 33.59375 -26.296875 C 31.914062 -28.003906 29.695312 -28.859375 26.9375 -28.859375 C 24.289062 -28.859375 22.109375 -27.988281 20.390625 -26.25 C 18.679688 -24.519531 17.828125 -22.328125 17.828125 -19.671875 C 17.828125 -16.960938 18.707031 -14.738281 20.46875 -13 C 22.226562 -11.269531 24.382812 -10.40625 26.9375 -10.40625 C 29.539062 -10.40625 31.722656 -11.269531 33.484375 -13 Z M 33.484375 -13 "/></g></g></g><g fill="#ff914d" fill-opacity="1"><g transform="translate(138.09381, 349.660246)"><g><path d="M 4.59375 0 L 4.59375 -65.828125 L 18.140625 -65.828125 L 18.140625 0 Z M 4.59375 0 "/></g></g></g><g fill="#ff914d" fill-opacity="1"><g transform="translate(156.997924, 349.660246)"><g><path d="M 7.265625 -4.859375 C 3.597656 -8.867188 1.765625 -13.78125 1.765625 -19.59375 C 1.765625 -25.414062 3.597656 -30.34375 7.265625 -34.375 C 10.941406 -38.40625 15.613281 -40.421875 21.28125 -40.421875 C 26.488281 -40.421875 30.773438 -38.785156 34.140625 -35.515625 L 34.140625 -39.265625 L 47.6875 -39.265625 L 47.6875 0 L 34.296875 0 L 34.296875 -4.4375 L 34.140625 -4.4375 C 30.773438 -0.71875 26.488281 1.140625 21.28125 1.140625 C 15.613281 1.140625 10.941406 -0.859375 7.265625 -4.859375 Z M 18.796875 -26.25 C 17.035156 -24.519531 16.15625 -22.300781 16.15625 -19.59375 C 16.15625 -16.882812 16.992188 -14.675781 18.671875 -12.96875 C 20.359375 -11.257812 22.582031 -10.40625 25.34375 -10.40625 C 27.988281 -10.40625 30.164062 -11.269531 31.875 -13 C 33.59375 -14.738281 34.453125 -16.9375 34.453125 -19.59375 C 34.453125 -22.300781 33.570312 -24.519531 31.8125 -26.25 C 30.050781 -27.988281 27.894531 -28.859375 25.34375 -28.859375 C 22.738281 -28.859375 20.554688 -27.988281 18.796875 -26.25 Z M 18.796875 -26.25 "/></g></g></g><g fill="#ff914d" fill-opacity="1"><g transform="translate(205.445136, 349.660246)"><g><path d="M 25.484375 -29.3125 C 22.929688 -29.3125 20.738281 -28.367188 18.90625 -26.484375 C 17.070312 -24.597656 16.15625 -22.328125 16.15625 -19.671875 C 16.15625 -16.960938 17.070312 -14.664062 18.90625 -12.78125 C 20.738281 -10.894531 22.929688 -9.953125 25.484375 -9.953125 C 26.710938 -9.953125 27.875 -10.101562 28.96875 -10.40625 C 30.070312 -10.71875 30.878906 -11.023438 31.390625 -11.328125 L 32.078125 -11.78125 L 36.671875 -2.375 C 36.304688 -2.113281 35.804688 -1.789062 35.171875 -1.40625 C 34.535156 -1.03125 33.082031 -0.515625 30.8125 0.140625 C 28.539062 0.804688 26.101562 1.140625 23.5 1.140625 C 17.726562 1.140625 12.660156 -0.882812 8.296875 -4.9375 C 3.941406 -8.988281 1.765625 -13.847656 1.765625 -19.515625 C 1.765625 -25.234375 3.941406 -30.144531 8.296875 -34.25 C 12.660156 -38.363281 17.726562 -40.421875 23.5 -40.421875 C 26.101562 -40.421875 28.5 -40.113281 30.6875 -39.5 C 32.882812 -38.882812 34.441406 -38.269531 35.359375 -37.65625 L 36.671875 -36.75 L 32.078125 -27.484375 C 30.390625 -28.703125 28.191406 -29.3125 25.484375 -29.3125 Z M 25.484375 -29.3125 "/></g></g></g><g fill="#ff914d" fill-opacity="1"><g transform="translate(239.197335, 349.660246)"><g><path d="M 44.328125 -17.765625 L 15.84375 -17.765625 C 15.84375 -15.003906 16.734375 -12.957031 18.515625 -11.625 C 20.304688 -10.300781 22.25 -9.640625 24.34375 -9.640625 C 26.539062 -9.640625 28.273438 -9.929688 29.546875 -10.515625 C 30.816406 -11.109375 32.269531 -12.273438 33.90625 -14.015625 L 43.703125 -9.109375 C 39.617188 -2.273438 32.832031 1.140625 23.34375 1.140625 C 17.425781 1.140625 12.347656 -0.882812 8.109375 -4.9375 C 3.878906 -8.988281 1.765625 -13.875 1.765625 -19.59375 C 1.765625 -25.3125 3.878906 -30.210938 8.109375 -34.296875 C 12.347656 -38.378906 17.425781 -40.421875 23.34375 -40.421875 C 29.570312 -40.421875 34.632812 -38.617188 38.53125 -35.015625 C 42.4375 -31.421875 44.390625 -26.28125 44.390625 -19.59375 C 44.390625 -18.675781 44.367188 -18.066406 44.328125 -17.765625 Z M 16.234375 -25.265625 L 31.15625 -25.265625 C 30.84375 -27.304688 30.035156 -28.875 28.734375 -29.96875 C 27.441406 -31.0625 25.773438 -31.609375 23.734375 -31.609375 C 21.484375 -31.609375 19.691406 -31.019531 18.359375 -29.84375 C 17.035156 -28.675781 16.328125 -27.148438 16.234375 -25.265625 Z M 16.234375 -25.265625 "/></g></g></g></svg>