<svg xmlns="http://www.w3.org/2000/svg" xmlns:xlink="http://www.w3.org/1999/xlink" width="500" zoomAndPan="magnify" viewBox="0 0 375 374.999991" height="500" preserveAspectRatio="xMidYMid meet" version="1.0"><defs><clipPath id="33862c3ce2"><path d="M 103.902344 11.585938 L 271.097656 11.585938 L 271.097656 178.78125 L 103.902344 178.78125 Z M 103.902344 11.585938 " clip-rule="nonzero"/></clipPath><clipPath id="dec463799b"><path d="M 187.5 11.585938 C 141.328125 11.585938 103.902344 49.015625 103.902344 95.183594 C 103.902344 141.355469 141.328125 178.78125 187.5 178.78125 C 233.671875 178.78125 271.097656 141.355469 271.097656 95.183594 C 271.097656 49.015625 233.671875 11.585938 187.5 11.585938 Z M 187.5 11.585938 " clip-rule="nonzero"/></clipPath><clipPath id="463c8ef0a3"><path d="M 207.804688 196.21875 L 375 196.21875 L 375 363.414062 L 207.804688 363.414062 Z M 207.804688 196.21875 " clip-rule="nonzero"/></clipPath><clipPath id="784ec16788"><path d="M 291.402344 196.21875 C 245.230469 196.21875 207.804688 233.644531 207.804688 279.816406 C 207.804688 325.984375 245.230469 363.414062 291.402344 363.414062 C 337.570312 363.414062 375 325.984375 375 279.816406 C 375 233.644531 337.570312 196.21875 291.402344 196.21875 Z M 291.402344 196.21875 " clip-rule="nonzero"/></clipPath><clipPath id="ad9a7c5fd0"><path d="M 0 196.21875 L 167.195312 196.21875 L 167.195312 363.414062 L 0 363.414062 Z M 0 196.21875 " clip-rule="nonzero"/></clipPath><clipPath id="d08d5253a1"><path d="M 83.597656 196.21875 C 37.429688 196.21875 0 233.644531 0 279.816406 C 0 325.984375 37.429688 363.414062 83.597656 363.414062 C 129.769531 363.414062 167.195312 325.984375 167.195312 279.816406 C 167.195312 233.644531 129.769531 196.21875 83.597656 196.21875 Z M 83.597656 196.21875 " clip-rule="nonzero"/></clipPath></defs><g clip-path="url(#33862c3ce2)"><g clip-path="url(#dec463799b)"><path fill="#ffffff" d="M 103.902344 11.585938 L 271.097656 11.585938 L 271.097656 178.78125 L 103.902344 178.78125 Z M 103.902344 11.585938 " fill-opacity="1" fill-rule="nonzero"/><path stroke-linecap="butt" transform="matrix(1.114645, 0, 0, 1.114645, 103.901664, 11.585911)" fill="none" stroke-linejoin="miter" d="M 74.99999 0.0000238469 C 33.577034 0.0000238469 0.000609766 33.579953 0.000609766 74.999404 C 0.000609766 116.42236 33.577034 149.998785 74.99999 149.998785 C 116.422946 149.998785 149.999371 116.42236 149.999371 74.999404 C 149.999371 33.579953 116.422946 0.0000238469 74.99999 0.0000238469 Z M 74.99999 0.0000238469 " stroke="#ff914d" stroke-width="72.6689" stroke-opacity="1" stroke-miterlimit="4"/></g></g><g clip-path="url(#463c8ef0a3)"><g clip-path="url(#784ec16788)"><path fill="#ff914d" d="M 207.804688 196.21875 L 375 196.21875 L 375 363.414062 L 207.804688 363.414062 Z M 207.804688 196.21875 " fill-opacity="1" fill-rule="nonzero"/></g></g><g clip-path="url(#ad9a7c5fd0)"><g clip-path="url(#d08d5253a1)"><path fill="#ffffff" d="M 0 196.21875 L 167.195312 196.21875 L 167.195312 363.414062 L 0 363.414062 Z M 0 196.21875 " fill-opacity="1" fill-rule="nonzero"/><path stroke-linecap="butt" transform="matrix(1.114645, 0, 0, 1.114645, 0.0000045, 196.21739)" fill="none" stroke-linejoin="miter" d="M 74.999377 0.00122055 C 33.579925 0.00122055 -0.00000403716 33.577645 -0.00000403716 75.000601 C -0.00000403716 116.420052 33.579925 149.999982 74.999377 149.999982 C 116.422332 149.999982 149.998757 116.420052 149.998757 75.000601 C 149.998757 33.577645 116.422332 0.00122055 74.999377 0.00122055 Z M 74.999377 0.00122055 " stroke="#ff914d" stroke-width="72.6689" stroke-opacity="1" stroke-miterlimit="4"/></g></g></svg>